<?xml version="1.0" encoding="UTF-8"?>
<!DOCTYPE svg PUBLIC "-//W3C//DTD SVG 1.1//EN" "http://www.w3.org/Graphics/SVG/1.1/DTD/svg11.dtd">
<svg xmlns="http://www.w3.org/2000/svg" version="1.1" width="512px" height="512px" style="shape-rendering:geometricPrecision; text-rendering:geometricPrecision; image-rendering:optimizeQuality; fill-rule:evenodd; clip-rule:evenodd" xmlns:xlink="http://www.w3.org/1999/xlink">
<g><path style="opacity:0.973" fill="#000000" d="M 39.5,-0.5 C 101.5,-0.5 163.5,-0.5 225.5,-0.5C 237.283,2.39713 247.283,8.39713 255.5,17.5C 263.794,8.51491 273.794,2.51491 285.5,-0.5C 347.5,-0.5 409.5,-0.5 471.5,-0.5C 492.5,5.16667 505.833,18.5 511.5,39.5C 511.5,101.5 511.5,163.5 511.5,225.5C 508.485,237.206 502.485,247.206 493.5,255.5C 502.485,263.794 508.485,273.794 511.5,285.5C 511.5,347.5 511.5,409.5 511.5,471.5C 505.833,492.5 492.5,505.833 471.5,511.5C 409.5,511.5 347.5,511.5 285.5,511.5C 273.794,508.485 263.794,502.485 255.5,493.5C 247.206,502.485 237.206,508.485 225.5,511.5C 163.5,511.5 101.5,511.5 39.5,511.5C 18.5,505.833 5.16667,492.5 -0.5,471.5C -0.5,409.5 -0.5,347.5 -0.5,285.5C 2.39713,273.717 8.39713,263.717 17.5,255.5C 8.51491,247.206 2.51491,237.206 -0.5,225.5C -0.5,163.5 -0.5,101.5 -0.5,39.5C 5.16667,18.5 18.5,5.16667 39.5,-0.5 Z M 49.5,19.5 C 104.834,19.3333 160.168,19.5 215.5,20C 230.042,21.18 239.542,28.68 244,42.5C 244.667,102.5 244.667,162.5 244,222.5C 239.542,236.32 230.042,243.82 215.5,245C 160.167,245.667 104.833,245.667 49.5,245C 31.6667,243.167 21.8333,233.333 20,215.5C 19.3333,160.167 19.3333,104.833 20,49.5C 22.0111,31.6564 31.8445,21.6564 49.5,19.5 Z M 295.5,19.5 C 350.834,19.3333 406.168,19.5 461.5,20C 476.042,21.18 485.542,28.68 490,42.5C 490.667,102.5 490.667,162.5 490,222.5C 485.542,236.32 476.042,243.82 461.5,245C 406.167,245.667 350.833,245.667 295.5,245C 277.667,243.167 267.833,233.333 266,215.5C 265.333,160.167 265.333,104.833 266,49.5C 268.011,31.6564 277.844,21.6564 295.5,19.5 Z M 135.5,102.5 C 157.912,104.745 168.079,117.078 166,139.5C 165.71,141.044 165.044,142.377 164,143.5C 158.481,135.93 151.815,134.596 144,139.5C 140.038,147.46 141.871,153.96 149.5,159C 132.974,164.826 120.141,160.326 111,145.5C 104.15,122.533 112.316,108.2 135.5,102.5 Z M 254.5,247.5 C 258.08,249.408 261.08,252.074 263.5,255.5C 261.167,258.5 258.5,261.167 255.5,263.5C 252.5,261.167 249.833,258.5 247.5,255.5C 249.856,252.814 252.189,250.147 254.5,247.5 Z M 49.5,265.5 C 104.834,265.333 160.168,265.5 215.5,266C 230.042,267.18 239.542,274.68 244,288.5C 244.667,348.5 244.667,408.5 244,468.5C 239.542,482.32 230.042,489.82 215.5,491C 160.167,491.667 104.833,491.667 49.5,491C 31.6667,489.167 21.8333,479.333 20,461.5C 19.3333,406.167 19.3333,350.833 20,295.5C 22.0111,277.656 31.8445,267.656 49.5,265.5 Z M 295.5,265.5 C 350.834,265.333 406.168,265.5 461.5,266C 479.333,267.833 489.167,277.667 491,295.5C 491.667,350.833 491.667,406.167 491,461.5C 489.167,479.333 479.333,489.167 461.5,491C 406.167,491.667 350.833,491.667 295.5,491C 280.958,489.82 271.458,482.32 267,468.5C 266.333,408.5 266.333,348.5 267,288.5C 271.347,274.309 280.847,266.642 295.5,265.5 Z"/></g>
<g><path style="opacity:0.945" fill="#000000" d="M 136.5,81.5 C 172.832,85.6667 189.665,106 187,142.5C 185.72,148.507 183.553,154.174 180.5,159.5C 184.607,162.768 187.273,166.934 188.5,172C 186.385,181.559 180.718,184.559 171.5,181C 169.333,178.833 167.167,176.667 165,174.5C 159.781,178.353 153.948,180.853 147.5,182C 111.478,184.809 91.1442,168.309 86.5,132.5C 89.8145,102.187 106.481,85.187 136.5,81.5 Z M 135.5,102.5 C 112.316,108.2 104.15,122.533 111,145.5C 120.141,160.326 132.974,164.826 149.5,159C 141.871,153.96 140.038,147.46 144,139.5C 151.815,134.596 158.481,135.93 164,143.5C 165.044,142.377 165.71,141.044 166,139.5C 168.079,117.078 157.912,104.745 135.5,102.5 Z"/></g>
<g><path style="opacity:0.944" fill="#000000" d="M 351.5,81.5 C 356.457,81.6195 359.957,83.9528 362,88.5C 362.333,108.833 362.667,129.167 363,149.5C 367.057,159.758 374.557,163.591 385.5,161C 390.935,159.231 394.768,155.731 397,150.5C 397.022,129.078 397.689,107.745 399,86.5C 403.679,81.6945 408.846,80.8611 414.5,84C 416.041,85.5793 417.208,87.4127 418,89.5C 418.946,112.209 418.613,134.876 417,157.5C 409.996,173.993 397.496,182.327 379.5,182.5C 358.522,181.684 346.022,171.017 342,150.5C 341.333,130.5 341.333,110.5 342,90.5C 343.129,85.2008 346.296,82.2008 351.5,81.5 Z"/></g>
<g><path style="opacity:0.983" fill="#000000" d="M 127.5,328.5 C 133.52,327.22 138.353,328.887 142,333.5C 142.667,363.5 142.667,393.5 142,423.5C 135.667,431.5 129.333,431.5 123,423.5C 122.333,393.5 122.333,363.5 123,333.5C 124.366,331.638 125.866,329.972 127.5,328.5 Z"/></g>
<g><path style="opacity:0.944" fill="#000000" d="M 348.5,328.5 C 368.503,328.333 388.503,328.5 408.5,329C 414.393,332.821 415.893,337.988 413,344.5C 399.042,365.581 385.209,386.748 371.5,408C 384.167,408.333 396.833,408.667 409.5,409C 415.025,411.919 416.858,416.419 415,422.5C 413.132,426.521 409.965,428.687 405.5,429C 387.167,429.667 368.833,429.667 350.5,429C 341.94,426.375 339.44,420.875 343,412.5C 356.303,391.698 369.803,371.032 383.5,350.5C 371.792,349.914 360.126,349.08 348.5,348C 340.649,341.522 340.649,335.022 348.5,328.5 Z"/></g>
</svg>
